<svg xmlns="http://www.w3.org/2000/svg" width="468.633" height="457.209" viewBox="0 0 468.633 457.209">
  <g id="undraw_voice_control_ofo1" transform="translate(-19.086 0.003)">
    <path id="Path_151"  d="M258.416,58.687c15.9-21,40.857-25.306,63.572-23.634,71.356,5.258,135.772,56.38,191.489,114.205,20.14,20.928,40.024,43.488,53.121,72.316,26.672,58.682,18.747,139.972-18.317,188.307-12.607,16.454-27.9,29.078-43.584,40.233-27.9,19.878-58.009,35.831-89.678,40.387-22.584,3.231-45.446.606-67.894-3.909-62.728-12.641-124.3-40.556-175.9-88.309-22.633-20.944-43.965-46.986-53.3-80.87s-3.358-76.832,19.754-96.888c9.558-8.3,20.984-12.035,32.175-15.557,16.466-5.178,33.2-10.282,48.064-20.807,15.35-10.872,33.525-31.905,30.482-55.968C245.151,102.369,242.533,79.688,258.416,58.687Z" transform="translate(-94.629 -34.73)" fill="#00bfa6" opacity="0.1"/>
    <circle id="Ellipse_384" cx="11.531" cy="11.531" r="11.531" transform="translate(29.061 22.074)" fill="#00bfa6" opacity="0.1"/>
    <circle id="Ellipse_385" cx="9.068" cy="9.068" r="9.068" transform="translate(82.701 69.914)" fill="#00bfa6" opacity="0.1"/>
    <circle id="Ellipse_386" cx="3.199" cy="3.199" r="3.199" transform="translate(113.935 14.963)" fill="#00bfa6" opacity="0.1"/>
  </g>
</svg>
