<svg xmlns="http://www.w3.org/2000/svg" width="116.255" height="93.479" viewBox="0 0 116.255 93.479">
  <g id="undraw_checking_boxes_re_9h8m" transform="translate(0)">
      <circle id="Ellipse_414" data-name="Ellipse 414" cx="57" cy="45" r="45" fill="#DFEEFA"/>

    <path id="Path_115" data-name="Path 115" d="M971.3,693.88a12.232,12.232,0,0,1-1.579,3.476,18.8,18.8,0,0,1-6.309,5.663c-.172.1-.346.2-.52.3h-1.739l-.061-.139h0l-.071-.16-.009-.019,0,.019-.069.3h-.853c-.071-.1-.14-.2-.208-.3-.1-.148-.2-.3-.286-.448a7.267,7.267,0,0,1-.429-.823c-.015-.032-.028-.063-.04-.095l.057-.062-.236-1.033.475-.078-.52-1.6c.019-.059.041-.119.063-.178a3.994,3.994,0,0,1,1.49-1.754,22.72,22.72,0,0,1,2.164-1.261c.336-.188.667-.386.989-.6h0q.617-.4,1.2-.855l.019-.014.015-.013a17.789,17.789,0,0,0,4.332-4.915h0c.038-.061.073-.121.109-.183h0a17.2,17.2,0,0,0,1.188-2.481h0c.025-.063.048-.126.072-.189q.049.083.095.167h0A9.671,9.671,0,0,1,971.3,693.88Z" transform="translate(-855.457 -609.84)" fill="#44c5cb"/>
    <path id="Path_116" data-name="Path 116" d="M985.83,686.164a15.318,15.318,0,0,1-.362,3.477,14.99,14.99,0,0,1-.424,1.545,15.327,15.327,0,0,1-1.279,2.853c-.029.049-.057.1-.087.145h0a12.913,12.913,0,0,1-.726,1.093,6.025,6.025,0,0,1-1.439,1.447,3.8,3.8,0,0,1-1.513.585c-.1.019-.2.033-.309.045-.418.049-.85.068-1.264.157a2.757,2.757,0,0,0-.609.2,2.322,2.322,0,0,0-1.206,1.649c-.029.121-.052.244-.069.366-.138.941.014,1.918-.064,2.86-.009.1-.02.2-.034.3h-.094l-.061-.139h0c.006-.053.011-.106.016-.16a12.17,12.17,0,0,0,.011-1.39c-.005-.208-.009-.418-.006-.628,0-.168.009-.336.021-.5h0c.009-.1.019-.206.033-.308a3.988,3.988,0,0,1,.23-.915,2.292,2.292,0,0,1,1.3-1.348,3.411,3.411,0,0,1,.564-.158c.423-.081.86-.1,1.285-.154.045-.005.091-.011.135-.019s.112-.019.168-.029a3.618,3.618,0,0,0,1.535-.665,6.553,6.553,0,0,0,1.386-1.5c.207-.3.4-.6.587-.912h0l.027-.044v0a15.094,15.094,0,0,0,1.7-4.314c.011-.056.024-.111.037-.167a15.265,15.265,0,0,0,.337-3.333h0c0-.053,0-.1,0-.158,0-.109.165-.133.168-.024,0,.053,0,.106,0,.159h0Z" transform="translate(-870.652 -609.405)" fill="#fff"/>
    <path id="Path_117" data-name="Path 117" d="M1033.9,745.336a2.275,2.275,0,0,0,2.865-.684c.064-.088-.07-.192-.134-.1a2.106,2.106,0,0,1-2.666.631C1033.865,745.129,1033.8,745.287,1033.9,745.336Z" transform="translate(-920.944 -660.59)" fill="#fff"/>
    <path id="Path_118" data-name="Path 118" d="M1003.457,752.141a4.385,4.385,0,0,1,.155-3.192c.045-.1-.112-.164-.157-.064a4.56,4.56,0,0,0-.155,3.322C1003.336,752.31,1003.492,752.244,1003.457,752.141Z" transform="translate(-894.041 -664.365)" fill="#fff"/>
    <path id="Path_119" data-name="Path 119" d="M1040.985,708.282a1.287,1.287,0,0,1-.887-.841c-.034-.1-.19-.038-.157.065a1.443,1.443,0,0,0,.979.932.088.088,0,0,0,.111-.046A.085.085,0,0,0,1040.985,708.282Z" transform="translate(-926.262 -628.152)" fill="#fff"/>
    <path id="Path_120" data-name="Path 120" d="M950.246,680.956h0a16.563,16.563,0,0,1-.337,2.682h0c-.01.061-.024.12-.037.179a23.3,23.3,0,0,1-1.276,3.991q-.225.545-.472,1.08c-.045.1-.092.2-.14.3H947.8l-.061-.139h0l-.071-.16-.009-.019,0,.019-.07.3h-1.805l-.351-.3-.511-.438.715-.78.117-.129.018-.019.057-.062-.236-1.033.475-.078-.52-1.6-.246-.759-.062-.191-.36-1.11-1.086.2-.177-.619a17.176,17.176,0,0,0,.811-2.324c0-.006,0-.011.005-.018a17.878,17.878,0,0,0,.508-6.56h0c-.008-.071-.016-.143-.026-.212v0a16.866,16.866,0,0,0-.546-2.694c-.018-.067-.038-.133-.057-.2l.173.074h0c.092.04.184.083.274.129a9.749,9.749,0,0,1,4.639,5.276l.008.018a12.167,12.167,0,0,1,.829,3.716A14.514,14.514,0,0,1,950.246,680.956Z" transform="translate(-842.098 -595.712)" fill="#44c5cb"/>
    <path id="Path_121" data-name="Path 121" d="M960.95,808.788h-.2c-.063-.1-.131-.2-.2-.3q-.163-.229-.336-.448l-.3-.376c-.1-.13-.206-.26-.305-.394l.117-.129c.019.025.038.051.058.076.323.425.673.835.972,1.271C960.825,808.586,960.889,808.686,960.95,808.788Z" transform="translate(-856.078 -715.309)" fill="#fff"/>
    <path id="Path_122" data-name="Path 122" d="M948.642,669.785c.033.042.067.085.1.127q.37.479.7.989a14.889,14.889,0,0,1,1.038,1.875c.024.051.048.1.071.154a15.06,15.06,0,0,1,1.242,4.475c0,.015,0,.029.005.044q.063.542.081,1.087a6.539,6.539,0,0,1-.2,2.035c-.025.087-.053.173-.083.256a3.448,3.448,0,0,1-.284.587,3.5,3.5,0,0,1-.27.39c-.059.076-.121.15-.187.222l-.116.125-.1.1c-.341.331-.717.638-1.025,1l.062.191a10.24,10.24,0,0,1,1.024-1.016,4.787,4.787,0,0,0,.588-.667c.023-.033.047-.065.068-.1a3.369,3.369,0,0,0,.3-.542c.043-.095.082-.192.117-.293a6.047,6.047,0,0,0,.278-2.02,13.046,13.046,0,0,0-.078-1.312c-.005-.057-.011-.112-.019-.169a15.476,15.476,0,0,0-2.434-6.606q-.313-.475-.663-.928c-.03-.042-.062-.082-.095-.124C948.7,669.579,948.576,669.7,948.642,669.785Z" transform="translate(-846.477 -595.165)" fill="#fff"/>
    <path id="Path_123" data-name="Path 123" d="M973.8,715.695a2.275,2.275,0,0,0,1.876-2.271.085.085,0,0,0-.17,0,2.107,2.107,0,0,1-1.75,2.109C973.654,715.549,973.7,715.713,973.8,715.695Z" transform="translate(-868.387 -633.352)" fill="#fff"/>
    <path id="Path_124" data-name="Path 124" d="M953.016,749.31a4.384,4.384,0,0,1-1.8-2.642c-.024-.107-.188-.063-.164.043a4.561,4.561,0,0,0,1.876,2.745C953.021,749.519,953.106,749.372,953.016,749.31Z" transform="translate(-848.599 -662.418)" fill="#fff"/>
    <path id="Path_125" data-name="Path 125" d="M954.452,693.307a1.288,1.288,0,0,1-1.214-.138c-.09-.063-.175.084-.086.147a1.443,1.443,0,0,0,1.343.155.088.088,0,0,0,.06-.1A.085.085,0,0,0,954.452,693.307Z" transform="translate(-850.402 -615.715)" fill="#fff"/>
    <path id="Path_126" data-name="Path 126" d="M219.567,235.009H139.731a.128.128,0,1,1,0-.256h79.836a.128.128,0,1,1,0,.256Z" transform="translate(-139.603 -215.19)" fill="#cacaca"/>
    <ellipse id="Ellipse_11" data-name="Ellipse 11" cx="1.379" cy="1.41" rx="1.379" ry="1.41" transform="translate(1.571 15.204)" fill="#fff"/>
    <ellipse id="Ellipse_12" data-name="Ellipse 12" cx="1.379" cy="1.41" rx="1.379" ry="1.41" transform="translate(6.337 15.204)" fill="#fff"/>
    <ellipse id="Ellipse_13" data-name="Ellipse 13" cx="1.379" cy="1.41" rx="1.379" ry="1.41" transform="translate(11.102 15.204)" fill="#fff"/>
    <path id="Path_127" data-name="Path 127" d="M725.125,203H721.74a.256.256,0,1,0,0,.513h3.385a.256.256,0,1,0,0-.513Z" transform="translate(-648.017 -187.445)" fill="#3f3d56"/>
    <path id="Path_128" data-name="Path 128" d="M725.125,210.619H721.74a.256.256,0,1,0,0,.513h3.385a.256.256,0,1,0,0-.513Z" transform="translate(-648.017 -194.103)" fill="#3f3d56"/>
    <path id="Path_129" data-name="Path 129" d="M725.125,218.229H721.74a.256.256,0,1,0,0,.513h3.385a.256.256,0,1,0,0-.513Z" transform="translate(-648.017 -200.752)" fill="#3f3d56"/>
    <path id="Path_130" data-name="Path 130" d="M252.252,278.159h-3.584a45.368,45.368,0,0,0-4.223,12.632h7.808a1.891,1.891,0,0,0,1.894-1.894v-8.846A1.9,1.9,0,0,0,252.252,278.159Z" transform="translate(-231.207 -253.116)" fill="#fff" style="isolation: isolate"/>
    <path id="Path_131" data-name="Path 131" d="M391.1,278.159H374.858a1.9,1.9,0,0,0-1.894,1.893V288.9a1.9,1.9,0,0,0,1.894,1.894H391.1a1.9,1.9,0,0,0,1.894-1.894v-8.846A1.9,1.9,0,0,0,391.1,278.159Z" transform="translate(-343.501 -253.116)" fill="#fff" style="isolation: isolate"/>
    <path id="Path_132" data-name="Path 132" d="M601.409,278.159H585.168a1.9,1.9,0,0,0-1.894,1.893V288.9a1.9,1.9,0,0,0,1.894,1.894h16.241A1.9,1.9,0,0,0,603.3,288.9v-8.846A1.9,1.9,0,0,0,601.409,278.159Z" transform="translate(-527.257 -253.116)" fill="#fff" style="isolation: isolate"/>
    <path id="Path_133" data-name="Path 133" d="M247.385,425.159h-8.463q-.047,1.045-.048,2.1a45.789,45.789,0,0,0,1.22,10.53h7.291a1.9,1.9,0,0,0,1.894-1.894v-8.846A1.9,1.9,0,0,0,247.385,425.159Z" transform="translate(-226.34 -381.556)" fill="#fff" style="isolation: isolate"/>
    <path id="Path_134" data-name="Path 134" d="M391.1,425.159H374.858a1.9,1.9,0,0,0-1.894,1.893V435.9a1.9,1.9,0,0,0,1.894,1.894H391.1a1.9,1.9,0,0,0,1.894-1.894v-8.846A1.9,1.9,0,0,0,391.1,425.159Z" transform="translate(-343.501 -381.556)" fill="#fff" style="isolation: isolate"/>
    <path id="Path_135" data-name="Path 135" d="M601.409,425.159H585.168a1.9,1.9,0,0,0-1.894,1.893V435.9a1.9,1.9,0,0,0,1.894,1.894h16.241c.052,0,.1,0,.155-.008a1.8,1.8,0,0,0,.588-.145,1.9,1.9,0,0,0,1.15-1.723v-8.863A1.9,1.9,0,0,0,601.409,425.159Z" transform="translate(-527.257 -381.556)" fill="#fff" style="isolation: isolate"/>
    <circle id="Ellipse_14" data-name="Ellipse 14" cx="3.757" cy="3.757" r="3.757" transform="translate(17.627 32.273)" fill="#00bfa6"/>
    <path id="Path_136" data-name="Path 136" d="M294.923,353.6a.418.418,0,0,1-.334-.167l-1.025-1.367a.418.418,0,1,1,.669-.5l.671.894,1.722-2.584a.418.418,0,0,1,.7.464l-2.05,3.075a.418.418,0,0,1-.336.186Z" transform="translate(-274.052 -315.618)" fill="#fff"/>
    <circle id="Ellipse_15" data-name="Ellipse 15" cx="3.757" cy="3.757" r="3.757" transform="translate(45.025 32.652)" fill="#00bfa6"/>
    <path id="Path_137" data-name="Path 137" d="M511.923,356.6a.418.418,0,0,1-.334-.167l-1.025-1.367a.418.418,0,0,1,.669-.5l.671.894,1.722-2.584a.418.418,0,1,1,.7.464l-2.05,3.075a.418.418,0,0,1-.336.186Z" transform="translate(-463.654 -318.24)" fill="#fff"/>
    <path id="Path_138" data-name="Path 138" d="M940.648,413.222l-1.176-11.384-.31-4.685,3.292-.6s.493,3.221.924,5.111c.426,1.865-.567,11.3-.593,11.552a1.6,1.6,0,1,1-2.136,0Z" transform="translate(-838.211 -356.566)" fill="#a0616a"/>
    <path id="Path_139" data-name="Path 139" d="M717.948,673.548l-1.633.373L714.1,667.8l2.409-.551Z" transform="translate(-623.935 -583.005)" fill="#a0616a"/>
    <path id="Path_140" data-name="Path 140" d="M852.983,790.474l-.417.095-.043.01-1.905-.311-.056-.009-.8.95a2.1,2.1,0,0,0-1.581,2.518l0,.011.014.056.242-.056,5.021-1.149Z" transform="translate(-758.675 -700.559)" fill="#2f2e41"/>
    <path id="Path_141" data-name="Path 141" d="M804.563,680.877h-1.675l-.8-6.459h2.471Z" transform="translate(-700.818 -589.267)" fill="#a0616a"/>
    <path id="Path_142" data-name="Path 142" d="M926.834,795.878l-.146-.059-1.641-.668-.053-.021-.986.749a2.1,2.1,0,0,0-2.1,2.1v.068h5.4v-2.17Z" transform="translate(-823.132 -704.814)" fill="#2f2e41"/>
    <path id="Path_143" data-name="Path 143" d="M833.6,529.139l1.409,13.381s1.875,13.4,1.523,15.247.088,2.113.088,2.113l-3.213-.229a2.525,2.525,0,0,0-.44-1.673c-.528-.528-.264-2.113-.264-2.113l-6.233-21.8-3.785,11.444s2.391,9.281,2.3,9.457a43.049,43.049,0,0,0,1.515,4.04l-3.587,1.189s.44-1.409-.176-1.849-1.144-.088-.616-.88-4.162-6.611-4.058-10.361c.031-1.128.068-2.338.114-3.578.238-6.562.689-13.956,1.512-14.392C821.185,528.347,833.6,529.139,833.6,529.139Z" transform="translate(-732.4 -472.1)" fill="#2f2e41"/>
    <circle id="Ellipse_16" data-name="Ellipse 16" cx="3.464" cy="3.464" r="3.464" transform="translate(91.063 23.018)" fill="#a0616a"/>
    <path id="Path_144" data-name="Path 144" d="M934.925,360.855l-4.7,1.194.033-1.32-.357-.379-.713-3.737-.758-9.675,2.6,1.379,0,0a7.029,7.029,0,0,1,1.127,1.669c.98,1.992,1.921,6.38,2.414,8.929a.279.279,0,0,0,.094.135A1.441,1.441,0,0,1,934.925,360.855Z" transform="translate(-828.83 -313.211)" fill="#3f3d56"/>
    <path id="Path_145" data-name="Path 145" d="M752.072,409.512s6.493-6.846,6.554-6.975c.454-3.444,1.758-4.964,1.954-4.8l3.367,1.167s-1,3.171-1.68,5.055c-.648,1.8-8.116,6.2-8.24,6.414a1.6,1.6,0,1,1-1.955-.862Z" transform="translate(-673.776 -357.587)" fill="#a0616a"/>
    <path id="Path_146" data-name="Path 146" d="M815.381,349.356s-2.915-1.429-4.046,1.377c-.62,1.584-2.205,5.429-3,7.8a.176.176,0,0,1-.022.042,1.925,1.925,0,0,0-.328,1.062.359.359,0,0,1-.009.082s3.2.624,4.156,2.3l.378-.41.067-.287Z" transform="translate(-723.594 -315.006)" fill="#3f3d56"/>
    <path id="Path_147" data-name="Path 147" d="M842.642,352.6c-6.709,1.386-15.6-1-15.6-1l2.372-10.281-.843-10.759a2.928,2.928,0,0,1,1.812-2.986l1.61-.6,1.331-1.9,3.8.125,1.519,2,1.2.636,2.6,1.379.011.006v.006l-.816,7.913-.492,4.771s1.494,5.366,1.188,6.078-.04.367.034.747.3.4.336,1.152S842.642,352.6,842.642,352.6Z" transform="translate(-740.247 -294.106)" fill="#3f3d56"/>
    <path id="Path_148" data-name="Path 148" d="M858.378,256.171c-.274-.27.138-.985.06-1.362-.089-.432-.565-.444-.679-.87a1.456,1.456,0,0,0-1.062-.853,6.867,6.867,0,0,0-3.579-.164,13.657,13.657,0,0,0-1.548.477c-.349.123-.012-.212-.362-.089a.548.548,0,0,0-.328.217c-.063.119.022.309.154.285l-1.28.564.718.752a.5.5,0,0,0-.569.636.719.719,0,0,0,.55.381c.384.075.093.44.484.433s3.121-.81,3.311-.467c.135.244.121.566.314.767.248.257.68.163.995,0a1.807,1.807,0,0,1,.989-.357c.37.042.65.726.741,1.087a2.781,2.781,0,0,1-.024,1.109c-.076.483-.839.966-.915,1.449.846.234,1.754-.511,2.089-1.806C858.405,257.537,858.961,256.746,858.378,256.171Z" transform="translate(-760.092 -230.922)" fill="#2f2e41"/>
    <circle id="Ellipse_17" data-name="Ellipse 17" cx="3.757" cy="3.757" r="3.757" transform="translate(71.286 50.581)" fill="#00bfa6"/>
    <path id="Path_149" data-name="Path 149" d="M719.923,498.6a.418.418,0,0,1-.334-.167l-1.025-1.367a.418.418,0,1,1,.669-.5l.671.894,1.722-2.584a.418.418,0,1,1,.7.464l-2.05,3.075a.419.419,0,0,1-.336.186Z" transform="translate(-645.392 -442.311)" fill="#fff"/>
    <path id="Path_150" data-name="Path 150" d="M807.59,817.961a.15.15,0,0,1-.15.15H772.051a.15.15,0,1,1,0-.3h35.389a.15.15,0,0,1,.15.15Z" transform="translate(-692.068 -724.632)" fill="#ccc"/>
  </g>
</svg>
