<svg id="undraw_certification_aif8" xmlns="http://www.w3.org/2000/svg" width="117.241" height="95.096" viewBox="0 0 117.241 95.096">
  <circle id="Ellipse_414" data-name="Ellipse 414" cx="57" cy="45" r="45" fill="#DFEEFA"/>

  <path id="Path_101" data-name="Path 101" d="M270.808,658.461a120.158,120.158,0,0,1-16.317-1.069c-.177-.023-.356-.048-.533-.074-1.328-.189-2.656-.4-3.947-.641a85.25,85.25,0,0,1-16.287-4.613c-16.626-6.651-27.08-5.235-32.922-2.877-6.322,2.552-8.752,6.728-8.776,6.77l-.208-.118c.024-.042,2.486-4.281,8.877-6.867A30.77,30.77,0,0,1,213.617,647a62.624,62.624,0,0,1,20.2,4.839,85.02,85.02,0,0,0,16.241,4.6c1.288.236,2.613.452,3.938.64.177.026.354.051.53.074a138.408,138.408,0,0,0,38.087-.575,122.162,122.162,0,0,0,12.625-2.472l.063.231a122.319,122.319,0,0,1-12.652,2.478,150.758,150.758,0,0,1-21.836,1.644Z" transform="translate(-191.819 -571.129)" fill="#3f3d56" opacity="0.239"/>
  <path id="Path_102" data-name="Path 102" d="M270.824,180.6c-4.215,0-8.318-.2-12.277-.592a91.262,91.262,0,0,1-24.823-5.81c-16.626-6.651-27.08-5.235-32.922-2.877-6.322,2.552-8.752,6.728-8.776,6.77l-.208-.118c.024-.042,2.486-4.281,8.877-6.867a30.764,30.764,0,0,1,12.921-1.97,62.618,62.618,0,0,1,20.2,4.839c16.652,6.661,35.183,6.923,47.8,5.97a141.295,141.295,0,0,0,23.626-3.7l.063.231a141.516,141.516,0,0,1-23.665,3.71C277.966,180.465,274.356,180.6,270.824,180.6Z" transform="translate(-191.819 -161.896)" fill="#3f3d56" opacity="0.24"/>
  <path id="Path_103" data-name="Path 103" d="M645.532,120.075s-4.7-1.679-7.723,5.036a132.422,132.422,0,0,1-7.723,14.1l2.686.672s.672-4.7,2.35-5.372l-.672,6.044s20.146,7.051,29.211-.672l-.336-2.35s1.343.336,1.343,2.35l1.007-1.007a18.045,18.045,0,0,0-4.029-4.7c-1.983-1.763-2.665-5.117-2.9-7.214a8.73,8.73,0,0,0-2.01-4.754C654.731,119.882,651.072,117.408,645.532,120.075Z" transform="translate(-567.145 -118.919)" fill="#2f2e41"/>
  <path id="Path_104" data-name="Path 104" d="M864.093,391.56s8.846,7.545,10.147,11.968-4.943,4.943-4.943,4.943l-13.529,1.3s-.26,6.244-2.6,7.025-.475-10.325-.475-10.325l13.224-3.724L859.93,396.5Z" transform="translate(-757.177 -352.405)" fill="#fbbebe"/>
  <path id="Path_105" data-name="Path 105" d="M592.633,445.907,591.592,459.7l-5.724,23.415s-5.2,10.667-.781,10.927,4.163-10.146,4.163-10.146l8.325-22.114.781-15.09Z" transform="translate(-527.083 -398.947)" fill="#fbbebe"/>
  <circle id="Ellipse_10" data-name="Ellipse 10" cx="8.585" cy="8.585" r="8.585" transform="translate(71.534 5.594)" fill="#fbbebe"/>
  <path id="Path_106" data-name="Path 106" d="M706.452,246.635s3.122,11.187-1.821,14.049,12.488,4.943,17.171-3.642c0,0-8.325-2.862-5.984-10.407Z" transform="translate(-630.236 -228.293)" fill="#fbbebe"/>
  <path id="Path_107" data-name="Path 107" d="M649.83,350.415l-1.561-.52s-3.122,1.3-3.122,3.642-.52,11.707-.52,11.707l7.025.78Z" transform="translate(-579.597 -316.723)" fill="#fff"/>
  <path id="Path_108" data-name="Path 108" d="M666.44,571.288a138.09,138.09,0,0,1-38.119.575c0-.143,0-.283,0-.42q0-1.218.093-2.408c.744-9.77,5.777-17.916,7.725-20.739.1-.143.189-.273.27-.387.314-.441.5-.674.5-.674s15.09-.246,22.894,2.875a3.357,3.357,0,0,1,1.016.665C663.726,553.46,665.436,562.178,666.44,571.288Z" transform="translate(-565.632 -485.719)" fill="#2f2e41"/>
  <path id="Path_109" data-name="Path 109" d="M845.46,325.624s3.382-1.821,6.764,2.081l6.764,7.8-5.2,5.724-9.886-5.984Z" transform="translate(-750.251 -295.575)" fill="#fff"/>
  <path id="Path_110" data-name="Path 110" d="M683.25,157.051a23.51,23.51,0,0,0,7.127-7.747s5.578,6.2,8.986,6.507.31-7.437.31-7.437l-6.2-1.549-5.888.62-4.648,3.1Z" transform="translate(-612.408 -142.818)" fill="#2f2e41"/>
  <path id="Path_111" data-name="Path 111" d="M691.582,315.474s-3.641,5.757-14.569,3.008l-6.2,1.708-.824.227s.781,15.61,2.862,18.472,1.561,4.423,1.041,4.683-1.821-.26-1.041,1.041,1.821.52.781,1.3-1.561,3.642-1.561,3.642l24.456,3.122s-.781-10.146,1.3-15.35a67.028,67.028,0,0,0,2.6-7.285l-1.561-13.008Z" transform="translate(-601.316 -287.246)" fill="#fff"/>
  <rect id="Rectangle_141" data-name="Rectangle 141" width="33.477" height="41.846" transform="translate(5.962 23.135)" fill="#fff"/>
  <rect id="Rectangle_142" data-name="Rectangle 142" width="7.174" height="4.782" transform="translate(8.294 26.662)" fill="#ccc"/>
  <rect id="Rectangle_143" data-name="Rectangle 143" width="27.738" height="1.674" transform="translate(8.354 35.987)" fill="#ccc"/>
  <rect id="Rectangle_144" data-name="Rectangle 144" width="27.738" height="1.674" transform="translate(8.354 40.411)" fill="#ccc"/>
  <rect id="Rectangle_145" data-name="Rectangle 145" width="27.738" height="1.674" transform="translate(8.354 44.835)" fill="#ccc"/>
  <rect id="Rectangle_146" data-name="Rectangle 146" width="27.738" height="1.674" transform="translate(8.354 49.259)" fill="#ccc"/>
  <rect id="Rectangle_147" data-name="Rectangle 147" width="27.738" height="1.674" transform="translate(8.354 53.682)" fill="#ccc"/>
  <path id="Path_112" data-name="Path 112" d="M434.016,531.828A6.557,6.557,0,1,1,433,528.315,6.557,6.557,0,0,1,434.016,531.828Z" transform="translate(-388.001 -466.907)" fill="#fce350"/>
  <path id="Path_113" data-name="Path 113" d="M450.609,540.673l-6.473,6.472c-.407-.63-2.673-3.557-2.673-3.557a9.181,9.181,0,0,1,.928-.819l1.879,2.506,5.581-5.581a6.551,6.551,0,0,1,.758.979Z" transform="translate(-405.611 -479.265)" fill="#fff"/>
</svg>
