<svg xmlns="http://www.w3.org/2000/svg" width="117.241" height="95.096" viewBox="0 0 117.241 95.096">
    <circle id="Ellipse_414" data-name="Ellipse 414" cx="57" cy="45" r="45" fill="#DFEEFA"/>

    <path id="Path_69" data-name="Path 69" d="M365.977,191.945l-37.462,9.647a4.954,4.954,0,0,1-6.026-3.558l-11.329-44a4.954,4.954,0,0,1,3.558-6.026l34.852-8.975,8.921,3.993,11.044,42.888A4.954,4.954,0,0,1,365.977,191.945Z" transform="translate(-311.003 -139.037)" fill="#f2f2f2"/>
    <path id="Path_70" data-name="Path 70" d="M323.148,157.916a3.527,3.527,0,0,0-2.534,4.291l11.329,44a3.528,3.528,0,0,0,4.291,2.534L373.7,199.09a3.528,3.528,0,0,0,2.534-4.291l-10.873-42.224-7.84-3.51Z" transform="translate(-319.079 -147.562)" fill="#fff"/>
    <path id="Path_71" data-name="Path 71" d="M576.56,143.925l-5.8,1.493a1.648,1.648,0,0,1-2.007-1.185l-1.1-4.282a.1.1,0,0,1,.141-.12l8.782,3.9a.1.1,0,0,1-.016.194Z" transform="translate(-529.168 -139.704)" fill="#f2f2f2"/>
    <path id="Path_72" data-name="Path 72" d="M504.2,408.569l-17.056,4.392a.824.824,0,0,1-.411-1.6l17.056-4.392a.824.824,0,1,1,.411,1.6Z" transform="translate(-459.859 -366.777)" fill="#ccc"/>
    <path id="Path_73" data-name="Path 73" d="M512.117,420.877l-20.347,5.24a.824.824,0,1,1-.411-1.6l20.347-5.24a.824.824,0,1,1,.411,1.6Z" transform="translate(-463.79 -377.239)" fill="#ccc"/>
    <circle id="Ellipse_44" data-name="Ellipse 44" cx="2.912" cy="2.912" r="2.912" transform="translate(17.412 45.649)" fill="#e6e6e6"/>
    <path id="Path_74" data-name="Path 74" d="M421.25,233.938,398.6,239.769a2.552,2.552,0,0,1-3.1-1.833L390.747,219.5a2.552,2.552,0,0,1,1.833-3.1l22.652-5.831a2.552,2.552,0,0,1,3.1,1.833l4.747,18.441A2.552,2.552,0,0,1,421.25,233.938Z" transform="translate(-378.722 -199.768)" fill="#fff"/>
    <path id="Path_75" data-name="Path 75" d="M421.25,233.938,398.6,239.769a2.552,2.552,0,0,1-3.1-1.833L390.747,219.5a2.552,2.552,0,0,1,1.833-3.1l22.652-5.831a2.552,2.552,0,0,1,3.1,1.833l4.747,18.441A2.552,2.552,0,0,1,421.25,233.938Zm-28.6-17.257a2.252,2.252,0,0,0-1.617,2.739l4.747,18.441a2.252,2.252,0,0,0,2.739,1.617l22.652-5.831a2.252,2.252,0,0,0,1.617-2.739l-4.747-18.441a2.252,2.252,0,0,0-2.739-1.617Z" transform="translate(-378.722 -199.768)" fill="#e6e6e6"/>
    <path id="Path_411" data-name="Path 411" d="M479.11,247.772l-11.432,2.943a.409.409,0,0,1-.5-.258.394.394,0,0,1,.278-.5l11.637-3c.47.238.346.725.013.811Z" transform="translate(-443.749 -230.779)" fill="#f2f2f2"/>
    <path id="Path_412" data-name="Path 412" d="M482.552,261.146l-11.432,2.943a.41.41,0,0,1-.5-.258.394.394,0,0,1,.278-.5l11.637-3c.47.238.346.725.013.811Z" transform="translate(-446.675 -242.148)" fill="#f2f2f2"/>
    <path id="Path_413" data-name="Path 413" d="M430.583,268.936l-3.489.9a.444.444,0,0,1-.54-.319l-1.06-4.117a.444.444,0,0,1,.319-.54l3.489-.9a.444.444,0,0,1,.54.319l1.06,4.117A.444.444,0,0,1,430.583,268.936Z" transform="translate(-408.315 -245.216)" fill="#e6e6e6"/>
    <path id="Path_414" data-name="Path 414" d="M455.276,288.586l-17.448,4.491a.409.409,0,0,1-.5-.258.394.394,0,0,1,.278-.5l17.653-4.544C455.733,288.013,455.609,288.5,455.276,288.586Z" transform="translate(-418.375 -265.473)" fill="#f2f2f2"/>
    <path id="Path_415" data-name="Path 415" d="M458.72,301.964l-17.448,4.491a.409.409,0,0,1-.5-.258.394.394,0,0,1,.278-.5l17.653-4.544C459.177,301.391,459.053,301.878,458.72,301.964Z" transform="translate(-421.303 -276.846)" fill="#f2f2f2"/>
    <path id="Path_416" data-name="Path 416" d="M462.161,315.333l-17.448,4.491a.41.41,0,0,1-.5-.258.395.395,0,0,1,.278-.5l17.653-4.544C462.618,314.76,462.494,315.247,462.161,315.333Z" transform="translate(-424.228 -288.21)" fill="#f2f2f2"/>
    <path id="Path_417" data-name="Path 417" d="M465.6,328.71,448.157,333.2a.409.409,0,0,1-.5-.258.394.394,0,0,1,.278-.5l17.653-4.544C466.061,328.137,465.938,328.624,465.6,328.71Z" transform="translate(-427.155 -299.581)" fill="#f2f2f2"/>
    <path id="Path_418" data-name="Path 418" d="M469.046,342.08,451.6,346.572a.409.409,0,0,1-.5-.258.394.394,0,0,1,.278-.5l17.653-4.544C469.5,341.507,469.38,341.994,469.046,342.08Z" transform="translate(-430.081 -310.947)" fill="#f2f2f2"/>
    <path id="Path_395" data-name="Path 395" d="M441.335,455.765a.3.3,0,0,1-.191-.013l0,0-.793-.336a.3.3,0,1,1,.238-.56l.514.219.674-1.585a.3.3,0,0,1,.4-.161h0l0,.01,0-.01a.3.3,0,0,1,.161.4l-.793,1.863a.3.3,0,0,1-.2.175Z" transform="translate(-420.796 -406.182)" fill="#fff"/>
    <path id="Path_76" data-name="Path 76" d="M526.107,290.042H487.422a4.954,4.954,0,0,1-4.948-4.948V239.663a4.954,4.954,0,0,1,4.948-4.948h35.989l7.643,6.092v44.288A4.954,4.954,0,0,1,526.107,290.042Z" transform="translate(-456.764 -220.369)" fill="#e6e6e6"/>
    <path id="Path_77" data-name="Path 77" d="M495.5,244.215a3.528,3.528,0,0,0-3.524,3.524V293.17a3.528,3.528,0,0,0,3.524,3.524h38.684a3.528,3.528,0,0,0,3.524-3.524v-43.6l-6.717-5.354Z" transform="translate(-464.84 -228.445)" fill="#fff"/>
    <path id="Path_78" data-name="Path 78" d="M618.771,322.976H601.158a.824.824,0,1,1,0-1.648h17.612a.824.824,0,0,1,0,1.648Z" transform="translate(-556.952 -293.996)" fill="#fce350"/>
    <path id="Path_79" data-name="Path 79" d="M622.169,341.523H601.158a.824.824,0,1,1,0-1.648h21.011a.824.824,0,1,1,0,1.648Z" transform="translate(-556.952 -309.762)" fill="#fce350"/>
    <path id="Path_80" data-name="Path 80" d="M618.775,404.443H601.163a.824.824,0,0,0,0,1.648h17.612a.824.824,0,0,0,0-1.648Z" transform="translate(-556.957 -364.648)" fill="#ccc"/>
    <path id="Path_81" data-name="Path 81" d="M622.174,422.993H601.163a.824.824,0,1,0,0,1.648h21.011a.824.824,0,1,0,0-1.648Z" transform="translate(-556.957 -380.417)" fill="#ccc"/>
    <path id="Path_82" data-name="Path 82" d="M618.771,489.212H601.158a.824.824,0,0,1,0-1.648h17.612a.824.824,0,0,1,0,1.648Z" transform="translate(-556.952 -435.306)" fill="#ccc"/>
    <path id="Path_83" data-name="Path 83" d="M622.169,507.758H601.158a.824.824,0,1,1,0-1.648h21.011a.824.824,0,1,1,0,1.648Z" transform="translate(-556.952 -451.072)" fill="#ccc"/>
    <circle id="Ellipse_44-2" data-name="Ellipse 44" cx="2.912" cy="2.912" r="2.912" transform="translate(33.959 26.635)" fill="#fce350"/>
    <path id="Path_395-2" data-name="Path 395" d="M549.386,330.949a.3.3,0,0,1-.182-.06l0,0-.684-.524a.3.3,0,0,1,.37-.483l.443.34,1.048-1.367a.3.3,0,0,1,.426-.056h0l-.006.009.007-.009a.3.3,0,0,1,.056.426l-1.232,1.607a.3.3,0,0,1-.242.119Z" transform="translate(-512.803 -300.291)" fill="#fff"/>
    <path id="Path_84" data-name="Path 84" d="M545.314,402.7a2.912,2.912,0,0,1-2.912,2.913.62.62,0,0,1-.075,0,2.912,2.912,0,1,1,2.987-2.91Z" transform="translate(-505.231 -360.689)" fill="#ccc"/>
    <circle id="Ellipse_44-3" data-name="Ellipse 44" cx="2.912" cy="2.912" r="2.912" transform="translate(33.959 51.56)" fill="#ccc"/>
    <path id="Path_85" data-name="Path 85" d="M762.2,241.655h-5.987a1.648,1.648,0,0,1-1.648-1.648v-4.422a.1.1,0,0,1,.167-.081l7.532,5.967a.1.1,0,0,1-.064.184Z" transform="translate(-688.056 -221.022)" fill="#ccc"/>
    <path id="Path_86" data-name="Path 86" d="M558.834,402.934a2.912,2.912,0,0,1-2.912,2.913.634.634,0,0,1-.075,0,6.305,6.305,0,0,1,.565-5.782A2.914,2.914,0,0,1,558.834,402.934Z" transform="translate(-518.751 -360.925)" fill="#fce350"/>
    <path id="Path_87" data-name="Path 87" d="M600.334,405.267a.826.826,0,0,1,.825-.825h4.389a6.237,6.237,0,0,1,.541,1.648h-4.93a.825.825,0,0,1-.825-.823Z" transform="translate(-556.952 -364.648)" fill="#fce350"/>
    <path id="Path_88" data-name="Path 88" d="M606.2,422.993a6.289,6.289,0,0,1-.219,1.648h-4.813a.824.824,0,1,1,0-1.648Z" transform="translate(-556.957 -380.417)" fill="#fce350"/>
    <path id="Path_89" data-name="Path 89" d="M642.852,446.715a.9.9,0,0,1-1.236.3l-10.5-6.4a.9.9,0,0,1,.937-1.536l10.5,6.4A.9.9,0,0,1,642.852,446.715Z" transform="translate(-582.755 -393.977)" fill="#3f3d56"/>
    <path id="Path_90" data-name="Path 90" d="M566.168,386.014a7.2,7.2,0,1,1-2.4-9.892A7.2,7.2,0,0,1,566.168,386.014Zm-10.752-6.559a5.4,5.4,0,1,0,7.419-1.8A5.4,5.4,0,0,0,555.416,379.455Z" transform="translate(-516.567 -339.678)" fill="#3f3d56"/>
    <circle id="Ellipse_9" data-name="Ellipse 9" cx="3.683" cy="3.683" r="3.683" transform="translate(68.977 36.377)" fill="#a0616a"/>
    <path id="Path_91" data-name="Path 91" d="M793.568,463.545a1.65,1.65,0,0,1,1.248-2.122,1.568,1.568,0,0,1,.219-.027l3.879-6.226L795.37,451.8a1.414,1.414,0,1,1,1.967-2.032l4.892,4.824.01.012a1.281,1.281,0,0,1-.089,1.527l-5.435,6.428a1.608,1.608,0,0,1,.041.157,1.65,1.65,0,0,1-1.481,1.967c-.047,0-.093.006-.14.006A1.655,1.655,0,0,1,793.568,463.545Z" transform="translate(-721.146 -402.84)" fill="#a0616a"/>
    <path id="Path_92" data-name="Path 92" d="M428.772,568.8h-1.838l-.874-7.09h2.713Z" transform="translate(-362.177 -477.49)" fill="#a0616a"/>
    <path id="Path_93" data-name="Path 93" d="M724.673,746.417h-5.927v-.075a2.307,2.307,0,0,1,2.307-2.307h3.62Z" transform="translate(-657.61 -653.322)" fill="#2f2e41"/>
    <path id="Path_94" data-name="Path 94" d="M532.226,557.511l-1.579.94-4.379-5.645,2.331-1.388Z" transform="translate(-447.361 -468.74)" fill="#a0616a"/>
    <path id="Path_95" data-name="Path 95" d="M854.838,728.1l-5.093,3.032-.038-.065a2.307,2.307,0,0,1,.8-3.162h0l3.11-1.852Z" transform="translate(-768.658 -638.033)" fill="#2f2e41"/>
    <path id="Path_96" data-name="Path 96" d="M730.2,537.243c-1.231-14.5-1.964-27.97,2.537-33.465l.035-.043,7.576,3.03.012.027c.026.056,2.545,5.6,1.957,9.325l1.869,8.6,6.093,10.2a.675.675,0,0,1-.307.964l-2.648,1.165a.678.678,0,0,1-.847-.265l-6.628-10.808-3.744-8.289a.225.225,0,0,0-.429.069L733.6,537.258a.674.674,0,0,1-.671.6h-2.058A.679.679,0,0,1,730.2,537.243Z" transform="translate(-666.55 -449.053)" fill="#2f2e41"/>
    <path id="Path_97" data-name="Path 97" d="M751.818,448.931l-.036-.017-.006-.04a12.8,12.8,0,0,1,1-6.541,5.193,5.193,0,0,1,6.028-3.11h0a5.187,5.187,0,0,1,3.308,2.544,5.131,5.131,0,0,1,.356,4.112c-1.19,3.479-2.733,6.733-2.748,6.766l-.032.068Z" transform="translate(-685.605 -394.091)" fill="#f53d52"/>
    <path id="Path_98" data-name="Path 98" d="M693.928,453.325a1.65,1.65,0,0,1,2.424.426,1.575,1.575,0,0,1,.1.2l7.19,1.453,1.914-4.5a1.414,1.414,0,1,1,2.592,1.131l-2.805,6.272-.008.013a1.281,1.281,0,0,1-1.462.451l-7.925-2.84a1.546,1.546,0,0,1-.133.093,1.65,1.65,0,0,1-2.361-.7q-.03-.064-.055-.129A1.655,1.655,0,0,1,693.928,453.325Z" transform="translate(-635.98 -403.419)" fill="#a0616a"/>
    <path id="Path_99" data-name="Path 99" d="M783.592,380.757a3,3,0,0,0-1.555-1.437,5.059,5.059,0,0,0-2.745.233,5.086,5.086,0,0,1-2.134.126,2.4,2.4,0,0,1-1.7-1.191c-.472-.945-.074-2.072-.1-3.128a3.8,3.8,0,0,0-4.787-3.57,1.9,1.9,0,0,0-2.192.394,2.549,2.549,0,0,0-2.549,2.549h2.437a2.421,2.421,0,0,0,.368,1.789c.43.632,1.178,1.089,1.322,1.84a2.352,2.352,0,0,1-.874,1.947,4.045,4.045,0,0,0-1.283,1.776,2.2,2.2,0,0,0,.315,1.584,5.16,5.16,0,0,0,1.107,1.22,16.254,16.254,0,0,0,6.753,3.455,8.027,8.027,0,0,0,5.3-.245,5.267,5.267,0,0,0,2.319-7.342Z" transform="translate(-697.628 -336.754)" fill="#2f2e41"/>
    <path id="Path_100" data-name="Path 100" d="M725.639,759.263H697.151a.15.15,0,0,1,0-.3h28.488a.15.15,0,0,1,0,.3Z" transform="translate(-639.125 -666.012)" fill="#ccc"/>
</svg>
