<svg xmlns="http://www.w3.org/2000/svg" width="90" height="90" viewBox="0 0 90 90">
  <g id="Group_393" data-name="Group 393" transform="translate(-234 -384)">
    <circle id="Ellipse_417" data-name="Ellipse 417" cx="45" cy="45" r="45" transform="translate(234 384)" fill="#DFEEFA"/>
    <g id="undraw_the_search_s0xf" transform="translate(244.094 389.827)">
      <path id="Path_52" data-name="Path 52" d="M324.376,104.729h-.43V92.936a6.825,6.825,0,0,0-6.825-6.825H292.136a6.825,6.825,0,0,0-6.825,6.825v64.7a6.825,6.825,0,0,0,6.825,6.825h24.984a6.825,6.825,0,0,0,6.825-6.825V113.123h.431Z" transform="translate(-285.311 -86.111)" fill="#e6e6e6"/>
      <path id="Path_53" data-name="Path 53" d="M333.007,102.606h-3.261a2.422,2.422,0,0,1-2.242,3.336H313.191a2.422,2.422,0,0,1-2.242-3.336H307.9a5.1,5.1,0,0,0-5.1,5.1v64.6a5.1,5.1,0,0,0,5.1,5.1h25.1a5.1,5.1,0,0,0,5.1-5.1h0V107.7A5.1,5.1,0,0,0,333.007,102.606Z" transform="translate(-300.922 -100.83)" fill="#fff"/>
      <path id="a2804879-ded6-4045-b20f-1f1dde9b938b" d="M357.324,502.794h-30.1a.558.558,0,0,1-.557-.557V494.77a.558.558,0,0,1,.557-.557h30.1a.558.558,0,0,1,.557.557v7.467A.558.558,0,0,1,357.324,502.794Zm-30.1-8.359a.335.335,0,0,0-.335.334v7.467a.335.335,0,0,0,.335.334h30.1a.335.335,0,0,0,.334-.334V494.77a.335.335,0,0,0-.334-.334Z" transform="translate(-322.214 -450.28)" fill="#e6e6e6"/>
      <circle id="b9ad11c9-d8a0-4df6-8741-900b9ec46a35" cx="2.341" cy="2.341" r="2.341" transform="translate(6.57 45.882)" fill="#e6e6e6"/>
      <path id="bd261eec-7ae0-49b0-bf26-57ff03972605" d="M415.083,519.573a.39.39,0,1,0,0,.78h18.4a.39.39,0,0,0,.015-.78h-18.41Z" transform="translate(-400.764 -472.91)" fill="#e6e6e6"/>
      <path id="e80b4447-8c34-435b-ba6c-5300a190ab24" d="M415.083,541.32a.39.39,0,1,0,0,.78h18.4a.39.39,0,1,0,.013-.78H415.083Z" transform="translate(-400.764 -492.317)" fill="#e6e6e6"/>
      <path id="e55fcb7d-3a3b-45d8-b167-72fb2263dd92" d="M357.324,618.784h-30.1a.558.558,0,0,1-.557-.557V610.76a.558.558,0,0,1,.557-.557h30.1a.558.558,0,0,1,.557.557v7.467A.558.558,0,0,1,357.324,618.784Zm-30.1-8.359a.335.335,0,0,0-.335.334v7.467a.335.335,0,0,0,.335.335h30.1a.335.335,0,0,0,.334-.335V610.76a.335.335,0,0,0-.334-.334Z" transform="translate(-322.214 -553.784)" fill="#e6e6e6"/>
      <circle id="a50d232f-7710-43e4-8fa9-6ef0443fc454" cx="2.341" cy="2.341" r="2.341" transform="translate(6.57 58.369)" fill="#e6e6e6"/>
      <path id="e49b4965-a9e9-4371-9134-194e44e65c31" d="M415.083,635.562a.39.39,0,1,0,0,.78h18.4a.39.39,0,1,0,.013-.78H415.083Z" transform="translate(-400.764 -576.413)" fill="#e6e6e6"/>
      <path id="abc4586a-ac92-4255-aae6-84f53baad571" d="M415.083,657.31a.39.39,0,1,0,0,.78h18.4a.39.39,0,0,0,.013-.78H415.083Z" transform="translate(-400.764 -595.82)" fill="#e6e6e6"/>
      <path id="a9e593af-a319-4e97-9065-f0c2c04624d5" d="M377.976,254.408a10.587,10.587,0,0,1-10.591-10.582v-.009c0-.022,0-.046,0-.068a10.591,10.591,0,1,1,10.591,10.659h0Zm0-20.96a10.39,10.39,0,0,0-10.367,10.307c0,.024,0,.043,0,.061a10.369,10.369,0,1,0,10.369-10.368Z" transform="translate(-358.549 -217.389)" fill="#e6e6e6"/>
      <circle id="Ellipse_7" data-name="Ellipse 7" cx="4.306" cy="4.306" r="4.306" transform="translate(29.616 41.213)" fill="#fff"/>
      <path id="Path_54" data-name="Path 54" d="M557.881,508.392h-2.337a1.119,1.119,0,1,1,0-2.238H557.9a1.119,1.119,0,0,1-.015,2.239Z" transform="translate(-525.455 -460.935)" fill="#fd9225"/>
      <rect id="Rectangle_138" data-name="Rectangle 138" width="34.882" height="0.241" transform="translate(35.024 78.084)" fill="#3f3d56" opacity="0.26"/>
      <path id="Path_55" data-name="Path 55" d="M625.085,562.151a.7.7,0,0,1-.068-.135l-.556-1.488a.7.7,0,0,1,.411-.9l12.406-4.632a.7.7,0,0,1,.9.411l.556,1.489a.7.7,0,0,1-.411.9l-12.406,4.632A.7.7,0,0,1,625.085,562.151Z" transform="translate(-587.912 -504.48)" fill="#fff"/>
      <path id="Path_56" data-name="Path 56" d="M697.887,551.45l-5.045,2.012a.646.646,0,0,0-.441.775l.586,2.344a.646.646,0,0,0,.9.428l5.059-2.381a.647.647,0,0,0,.379-.831l-.608-1.967A.647.647,0,0,0,697.887,551.45Z" transform="translate(-648.56 -501.319)" fill="#2f2e41"/>
      <path id="Path_57" data-name="Path 57" d="M787.016,567.819a.7.7,0,0,1-.742-.467l-4.318-12.519a.7.7,0,0,1,.433-.89l1.5-.518a.7.7,0,0,1,.89.433l4.318,12.519a.7.7,0,0,1-.433.89l-1.5.518A.711.711,0,0,1,787.016,567.819Z" transform="translate(-728.457 -503.085)" fill="#fff"/>
      <path id="Path_58" data-name="Path 58" d="M785.3,552.167l1.657,5.172a.646.646,0,0,1-.318.833l-2.181,1.04a.646.646,0,0,1-.9-.424l-1.381-5.418a.647.647,0,0,1,.4-.821l1.9-.782A.647.647,0,0,1,785.3,552.167Z" transform="translate(-728.654 -501.607)" fill="#2f2e41"/>
      <path id="Path_59" data-name="Path 59" d="M745.92,690.742h-1.589a.7.7,0,0,1-.7-.7V676.8a.7.7,0,0,1,.7-.7h1.589a.7.7,0,0,1,.7.7v13.243A.7.7,0,0,1,745.92,690.742Z" transform="translate(-694.293 -612.587)" fill="#2f2e41"/>
      <path id="Path_60" data-name="Path 60" d="M775.112,690.742h-1.589a.7.7,0,0,1-.7-.7V676.8a.7.7,0,0,1,.7-.7h1.589a.7.7,0,0,1,.7.7v13.243A.7.7,0,0,1,775.112,690.742Z" transform="translate(-720.342 -612.587)" fill="#2f2e41"/>
      <path id="Path_61" data-name="Path 61" d="M740.157,557.431h-7.219a.755.755,0,0,1-.754-.754V544.949a4.363,4.363,0,0,1,8.726,0v11.728A.754.754,0,0,1,740.157,557.431Z" transform="translate(-684.078 -491.661)" fill="#ccc"/>
      <path id="Path_62" data-name="Path 62" d="M786,552.242h-3.66V531.556l.068.018a4.886,4.886,0,0,1,3.592,4.7Z" transform="translate(-728.835 -483.604)" fill="#2f2e41"/>
      <path id="Path_63" data-name="Path 63" d="M729.986,552.242h-3.66V536.278a4.886,4.886,0,0,1,3.592-4.7l.068-.018Z" transform="translate(-678.851 -483.604)" fill="#2f2e41"/>
      <circle id="Ellipse_8" data-name="Ellipse 8" cx="5.761" cy="5.761" r="5.761" transform="translate(46.654 34.976)" fill="#fff"/>
      <path id="Path_64" data-name="Path 64" d="M717.156,380.2s.323-8.935-3.875-6.028c0,0-2.422-8.128-8.343,4.037l-1.722,1.722a29.992,29.992,0,0,1,14.963,2.261Z" transform="translate(-658.228 -340.787)" fill="#2f2e41"/>
      <path id="Path_65" data-name="Path 65" d="M760.708,460.655a1.981,1.981,0,0,1-1.14-.271.876.876,0,0,1-.345-.654.589.589,0,0,1,.2-.484.76.76,0,0,1,.719-.1l-.291-2.123.213-.029.342,2.5-.178-.082a.652.652,0,0,0-.666.006.378.378,0,0,0-.124.312.661.661,0,0,0,.256.487,1.781,1.781,0,0,0,1.019.23Z" transform="translate(-708.205 -417.065)" fill="#2f2e41"/>
      <rect id="Rectangle_139" data-name="Rectangle 139" width="1.16" height="0.215" transform="translate(49.432 40.138)" fill="#2f2e41"/>
      <rect id="Rectangle_140" data-name="Rectangle 140" width="1.16" height="0.215" transform="translate(53.093 40.138)" fill="#2f2e41"/>
      <path id="Path_66" data-name="Path 66" d="M614.477,550.355a.646.646,0,0,1-.858-.314l-3.715-8.007a.646.646,0,0,1,1.172-.544l3.715,8.008A.646.646,0,0,1,614.477,550.355Z" transform="translate(-574.908 -492.134)" fill="#3f3d56"/>
      <path id="Path_67" data-name="Path 67" d="M565.669,490.73a.431.431,0,0,1-.431-.431v-5.485h-5.383a.431.431,0,1,1,0-.861h5.813a.431.431,0,0,1,.431.431V490.3A.431.431,0,0,1,565.669,490.73Z" transform="translate(-529.916 -441.125)" fill="#fd9225"/>
      <path id="Path_68" data-name="Path 68" d="M557.5,470.862A5.167,5.167,0,1,1,560.014,464,5.167,5.167,0,0,1,557.5,470.862Zm-3.806-8.2a3.875,3.875,0,1,0,5.147,1.884A3.876,3.876,0,0,0,553.7,462.659Z" transform="translate(-521.647 -420.649)" fill="#3f3d56"/>
    </g>
  </g>
</svg>
